<svg width="317" height="417" viewBox="0 0 316 417" fill="none" xmlns="http://www.w3.org/2000/svg">
  <circle cx="158" cy="231" r="158" fill="url(#paint0_linear_110_10)" />
  <path
    d="M135.138 337.661V117.874H162.833V323.813L149.34 313.516C154.785 313.753 159.992 313.279 164.963 312.096C170.171 310.675 174.905 308.545 179.166 305.704C183.663 302.864 187.332 299.432 190.173 295.407C193.487 291.62 195.854 287.478 197.274 282.98C198.695 278.246 199.405 273.393 199.405 268.422C199.405 262.741 198.458 258.717 196.564 256.35C194.671 253.983 192.185 252.799 189.108 252.799C183.9 252.799 178.574 255.166 173.13 259.901C167.685 264.398 163.188 269.843 159.637 276.234L155.376 253.154C160.821 242.976 167.567 235.401 175.615 230.43C183.663 225.459 191.593 222.974 199.405 222.974C209.583 222.974 217.513 226.761 223.194 234.336C229.112 241.674 232.071 251.616 232.071 264.162C232.071 278.838 228.047 291.857 219.999 303.219C211.95 314.581 200.825 323.458 186.622 329.849C180.231 332.69 173.722 334.702 167.094 335.885C160.466 337.069 153.364 337.661 145.79 337.661H135.138Z"
    fill="white" />
  <defs>
    <linearGradient id="paint0_linear_110_10" x1="40" y1="141" x2="285" y2="358.5" gradientUnits="userSpaceOnUse">
      <stop stop-color="#35A3E0" />
      <stop offset="1" stop-color="#1B39D9" stop-opacity="0.96" />
    </linearGradient>
  </defs>
</svg>