<svg width="512" height="512" viewBox="0 0 512 512" fill="none" xmlns="http://www.w3.org/2000/svg">
  <circle cx="256" cy="256" r="256" fill="url(#paint0_linear_110_10)" />
  <path
    d="M218.957 428.979V72.8682H263.83V406.542L241.969 389.858C250.79 390.242 259.228 389.475 267.282 387.557C275.72 385.256 283.391 381.804 290.294 377.202C297.581 372.599 303.526 367.038 308.128 360.518C313.498 354.381 317.333 347.67 319.634 340.382C321.936 332.712 323.086 324.849 323.086 316.795C323.086 307.59 321.552 301.07 318.484 297.235C315.416 293.4 311.388 291.482 306.403 291.482C297.965 291.482 289.335 295.317 280.514 302.988C271.693 310.275 264.406 319.096 258.653 329.452L251.749 292.057C260.57 275.565 271.501 263.292 284.541 255.238C297.581 247.184 310.43 243.157 323.086 243.157C339.578 243.157 352.427 249.293 361.631 261.566C371.22 273.456 376.014 289.564 376.014 309.892C376.014 333.671 369.494 354.765 356.454 373.175C343.413 391.584 325.387 405.967 302.375 416.322C292.02 420.924 281.473 424.184 270.734 426.102C259.995 428.02 248.489 428.979 236.216 428.979H218.957Z"
    fill="white" />
  <defs>
    <linearGradient id="paint0_linear_110_10" x1="64.8101" y1="110.177" x2="461.772" y2="462.582"
      gradientUnits="userSpaceOnUse">
      <stop stop-color="#35A3E0" />
      <stop offset="1" stop-color="#1B39D9" stop-opacity="0.96" />
    </linearGradient>
  </defs>
</svg>