<svg width="512" height="512" viewBox="0 0 512 512" fill="none" xmlns="http://www.w3.org/2000/svg">
  <circle cx="256" cy="256" r="228" fill="url(#paint0_linear_110_10)" />
  <path
    d="M223.009 410.059V92.8983H262.974V390.076L243.504 375.217C251.36 375.559 258.875 374.876 266.048 373.168C273.563 371.118 280.395 368.044 286.543 363.945C293.033 359.846 298.328 354.893 302.427 349.086C307.209 343.621 310.625 337.643 312.674 331.153C314.724 324.321 315.749 317.319 315.749 310.146C315.749 301.948 314.382 296.141 311.65 292.725C308.917 289.309 305.33 287.601 300.89 287.601C293.375 287.601 285.689 291.017 277.833 297.849C269.976 304.339 263.486 312.195 258.363 321.418L252.214 288.114C260.07 273.425 269.806 262.495 281.419 255.321C293.033 248.148 304.476 244.562 315.749 244.562C330.437 244.562 341.88 250.027 350.078 260.958C358.617 271.547 362.887 285.893 362.887 303.997C362.887 325.175 357.08 343.963 345.466 360.359C333.853 376.755 317.798 389.564 297.303 398.787C288.08 402.886 278.687 405.789 269.122 407.497C259.558 409.205 249.311 410.059 238.38 410.059H223.009Z"
    fill="white" />
  <defs>
    <linearGradient id="paint0_linear_110_10" x1="85.7215" y1="126.127" x2="439.266" y2="439.987"
      gradientUnits="userSpaceOnUse">
      <stop stop-color="#35A3E0" />
      <stop offset="1" stop-color="#1B39D9" stop-opacity="0.96" />
    </linearGradient>
  </defs>
</svg>